<svg width="15" height="15" viewBox="0 0 15 15" fill="none" xmlns="http://www.w3.org/2000/svg">
<path fill-rule="evenodd" clip-rule="evenodd" d="M4.90509 0.6828C2.54568 0.6828 0.632996 2.59548 0.632996 4.9549V10.295C0.632996 12.6544 2.54568 14.5671 4.90509 14.5671H10.2452C12.6046 14.5671 14.5173 12.6544 14.5173 10.295V4.9549C14.5173 2.59548 12.6046 0.6828 10.2452 0.6828H4.90509ZM7.57515 3.88687C5.51067 3.88687 3.83707 5.56047 3.83707 7.62496C3.83707 9.68944 5.51067 11.363 7.57515 11.363C9.63964 11.363 11.3132 9.68944 11.3132 7.62496C11.3132 5.56047 9.63964 3.88687 7.57515 3.88687ZM11.5421 4.64975C12.0898 4.64975 12.5338 4.20573 12.5338 3.65801C12.5338 3.11029 12.0898 2.66627 11.5421 2.66627C10.9944 2.66627 10.5504 3.11029 10.5504 3.65801C10.5504 4.20573 10.9944 4.64975 11.5421 4.64975Z" fill="#5D5FEF"/>
</svg>
