<svg width="15" height="14" viewBox="0 0 15 14" fill="none" xmlns="http://www.w3.org/2000/svg">
<path d="M0.911243 6.87875L4.18677 8.10128L5.45459 12.1786C5.53572 12.4397 5.85504 12.5363 6.067 12.363L7.89283 10.8745C8.08421 10.7186 8.35682 10.7108 8.55683 10.856L11.85 13.2469C12.0767 13.4117 12.3979 13.2875 12.4548 13.0135L14.8672 1.40935C14.9293 1.11007 14.6352 0.860402 14.3502 0.970619L0.907405 6.15646C0.575664 6.2844 0.578554 6.75408 0.911243 6.87875ZM5.25027 7.4505L11.6519 3.50775C11.7669 3.43709 11.8853 3.59266 11.7865 3.6843L6.50332 8.59526C6.31761 8.76813 6.19783 8.99946 6.1639 9.25055L5.98393 10.5842C5.9601 10.7623 5.70995 10.78 5.66081 10.6077L4.96866 8.17563C4.88939 7.89823 5.00491 7.60194 5.25027 7.4505Z" fill="#5D5FEF"/>
</svg>
