<svg width="16" height="9" viewBox="0 0 16 9" fill="none" xmlns="http://www.w3.org/2000/svg">
<path d="M12.9479 4.91454C12.7006 4.61918 12.7714 4.48778 12.9479 4.22376C12.9511 4.22075 14.9925 1.55289 15.2028 0.648132L15.2041 0.647529C15.3086 0.317814 15.2041 0.0755005 14.6987 0.0755005H13.0263C12.6006 0.0755005 12.4043 0.283456 12.2991 0.516125C12.2991 0.516125 11.4477 2.44378 10.2431 3.69332C9.85435 4.05438 9.67462 4.17012 9.46239 4.17012C9.35787 4.17012 9.19535 4.05438 9.19535 3.72467V0.647529C9.19535 0.252112 9.07617 0.0755005 8.72373 0.0755005H6.09412C5.82709 0.0755005 5.66839 0.259948 5.66839 0.431737C5.66839 0.80666 6.27066 0.892856 6.33312 1.9477V4.23642C6.33312 4.73793 6.23689 4.83015 6.02338 4.83015C5.45489 4.83015 4.07508 2.89465 3.25739 0.679476C3.09232 0.249701 2.93108 0.0761032 2.50216 0.0761032H0.829178C0.351821 0.0761032 0.255585 0.284059 0.255585 0.516728C0.255585 0.927817 0.824079 2.97181 2.89921 5.67222C4.28221 7.51549 6.22988 8.51428 8.00164 8.51428C9.06661 8.51428 9.19663 8.29246 9.19663 7.91091C9.19663 6.14961 9.10039 5.98325 9.63383 5.98325C9.88111 5.98325 10.3068 6.09898 11.3011 6.98806C12.4374 8.04231 12.6242 8.51428 13.2602 8.51428H14.9326C15.4093 8.51428 15.6508 8.29246 15.5119 7.85485C15.1939 6.93442 13.0448 5.04112 12.9479 4.91454Z" fill="#5D5FEF"/>
</svg>
